<svg width="200" height="200" preserveAspectRatio="xMidYMid meet" viewBox="0 0 200 200" xmlns="http://www.w3.org/2000/svg"><path fill="#ccc2eb" d="M79,16L58,16L58,58ZM142,37L142,16L100,16ZM121,184L142,184L142,142ZM58,163L58,184L100,184ZM37,58L16,58L16,100ZM184,79L184,58L142,58ZM163,142L184,142L184,100ZM16,121L16,142L58,142Z"/><path fill="#9a85d6" d="M37,58L58,58L58,16ZM142,37L142,58L184,58ZM163,142L142,142L142,184ZM58,163L58,142L16,142Z"/><path fill="#5c5c5c" d="M73,83a10.5,10.5 0 1,1 21.0,0a10.5,10.5 0 1,1 -21.0,0M106,83a10.5,10.5 0 1,1 21.0,0a10.5,10.5 0 1,1 -21.0,0M106,117a10.5,10.5 0 1,1 21.0,0a10.5,10.5 0 1,1 -21.0,0M73,117a10.5,10.5 0 1,1 21.0,0a10.5,10.5 0 1,1 -21.0,0"/></svg>