<svg width="200" height="200" preserveAspectRatio="xMidYMid meet" viewBox="0 0 200 200" xmlns="http://www.w3.org/2000/svg"><path fill="#949933" d="M79,16L58,37L79,58L100,37ZM142,37L121,16L100,37L121,58ZM121,184L142,163L121,142L100,163ZM58,163L79,184L100,163L79,142ZM37,58L16,79L37,100L58,79ZM184,79L163,58L142,79L163,100ZM163,142L184,121L163,100L142,121ZM16,121L37,142L58,121L37,100Z"/><path fill="#e6e6e6" d="M23,37a14.0,14.0 0 1,1 28.0,0a14.0,14.0 0 1,1 -28.0,0M149,37a14.0,14.0 0 1,1 28.0,0a14.0,14.0 0 1,1 -28.0,0M149,163a14.0,14.0 0 1,1 28.0,0a14.0,14.0 0 1,1 -28.0,0M23,163a14.0,14.0 0 1,1 28.0,0a14.0,14.0 0 1,1 -28.0,0"/><path fill="#c7cc66" d="M58,100L100,100L100,58L58,58ZM95,84a10.9,10.9 0 1,1 -21.8,0a10.9,10.9 0 1,1 21.8,0M100,58L100,100L142,100L142,58ZM127,84a10.9,10.9 0 1,1 -21.8,0a10.9,10.9 0 1,1 21.8,0M142,100L100,100L100,142L142,142ZM127,116a10.9,10.9 0 1,1 -21.8,0a10.9,10.9 0 1,1 21.8,0M100,142L100,100L58,100L58,142ZM95,116a10.9,10.9 0 1,1 -21.8,0a10.9,10.9 0 1,1 21.8,0"/></svg>